<?xml version="1.0" encoding="UTF-8"?>
<svg width="14px" height="14px" viewBox="0 0 14 14" version="1.1" xmlns="http://www.w3.org/2000/svg" xmlns:xlink="http://www.w3.org/1999/xlink">
    <!-- Generator: Sketch 50.2 (55047) - http://www.bohemiancoding.com/sketch -->
    <title>Blue_tick</title>
    <desc>Created with Sketch.</desc>
    <defs></defs>
    <g id="Blue_tick" stroke="none" stroke-width="1" fill="none" fill-rule="evenodd">
        <path d="M7,14 C3.13400675,14 -5.68434189e-14,10.8659932 -5.68434189e-14,7 C-5.68434189e-14,3.13400675 3.13400675,4.54747351e-13 7,4.54747351e-13 C10.8659932,4.54747351e-13 14,3.13400675 14,7 C14,10.8659932 10.8659932,14 7,14 Z M9.62730574,3.83175233 L5.97911046,8.8107733 L4.29166576,7.23740826 C4.02930828,6.99278746 3.61832118,7.00716588 3.37370038,7.26952335 C3.12907958,7.53188083 3.14345799,7.94286792 3.40581547,8.18748872 L5.62798734,10.2594307 C5.91252843,10.5247354 6.36488855,10.4820825 6.59482468,10.168268 L10.6751301,4.59950728 C10.8871398,4.31015856 10.8244441,3.90372729 10.5350954,3.69171761 C10.2457467,3.47970794 9.83931541,3.54240362 9.62730574,3.83175233 Z" id="Combined-Shape" fill="#009AEF"></path>
    </g>
</svg>